<svg width="184" height="72" viewBox="0 0 184 72" fill="none" xmlns="http://www.w3.org/2000/svg">
<path d="M10.0414 20.9034H14.6436L15.9647 22.9915L18.2232 26.1875L21.1635 30.6193H15.9221L13.834 27.5938L12.4703 25.0795L10.0414 20.9034ZM23.1664 18.4744C22.7686 20.8466 21.9803 22.8352 20.8013 24.4403C19.6223 26.0455 18.1912 27.2564 16.508 28.0732C14.8248 28.8899 13.0243 29.2983 11.1067 29.2983C9.06126 29.2983 7.28569 28.8544 5.78001 27.9666C4.27433 27.0788 3.17702 25.7791 2.4881 24.0675C1.79918 22.3558 1.66069 20.2642 2.07262 17.7926C2.45614 15.4205 3.23739 13.4247 4.41637 11.8054C5.59535 10.1861 7.03356 8.96094 8.731 8.12997C10.4284 7.29901 12.2431 6.88352 14.1749 6.88352C16.2061 6.88352 17.9711 7.33097 19.4696 8.22585C20.9753 9.12074 22.0691 10.4311 22.7509 12.157C23.4398 13.8828 23.5783 15.9886 23.1664 18.4744ZM17.2005 17.7926C17.3993 16.5426 17.4135 15.4915 17.2431 14.6392C17.0726 13.7798 16.714 13.1335 16.1671 12.7003C15.6202 12.2599 14.8851 12.0398 13.9618 12.0398C12.9107 12.0398 11.9803 12.2955 11.1706 12.8068C10.361 13.3182 9.68981 14.0533 9.15714 15.0121C8.62447 15.9709 8.2516 17.125 8.03853 18.4744C7.81126 19.7386 7.78995 20.7898 7.97461 21.6278C8.16637 22.4659 8.54279 23.0945 9.10387 23.5135C9.67205 23.9325 10.4107 24.142 11.3198 24.142C12.3567 24.142 13.2729 23.8935 14.0684 23.3963C14.8709 22.8991 15.535 22.1783 16.0605 21.2337C16.5932 20.2891 16.9732 19.142 17.2005 17.7926ZM40.6939 7.18182H46.6172L44.2947 21.1591C44.0249 22.821 43.3928 24.2592 42.3984 25.4737C41.4112 26.6811 40.1541 27.6151 38.6271 28.2756C37.1001 28.929 35.4027 29.2557 33.5348 29.2557C31.6527 29.2557 30.0618 28.929 28.7621 28.2756C27.4624 27.6151 26.5178 26.6811 25.9283 25.4737C25.3459 24.2592 25.1896 22.821 25.4595 21.1591L27.782 7.18182H33.7053L31.468 20.6477C31.3615 21.3224 31.4148 21.9226 31.6278 22.4482C31.8409 22.9737 32.1854 23.3892 32.6612 23.6946C33.1371 23.9929 33.7124 24.142 34.3871 24.142C35.0689 24.142 35.6974 23.9929 36.2727 23.6946C36.8551 23.3892 37.3381 22.9737 37.7216 22.4482C38.1051 21.9226 38.3501 21.3224 38.4567 20.6477L40.6939 7.18182ZM51.4778 29H45.0858L55.9096 7.18182H64.0062L67.5858 29H61.1937L59.063 13.1903H58.8926L51.4778 29ZM51.7335 20.392H63.7505L62.9835 24.8239H50.9664L51.7335 20.392ZM69.6871 29L73.3093 7.18182H79.2326L76.4201 24.2273H85.2411L84.4315 29H69.6871ZM92.8024 29L96.4245 7.18182H111.765L110.956 11.9545H101.538L100.942 15.7045H109.422L108.612 20.4773H100.132L98.7257 29H92.8024ZM119.867 7.18182L116.245 29H110.322L113.944 7.18182H119.867ZM119.052 29L122.675 7.18182H128.598L125.785 24.2273H134.606L133.797 29H119.052ZM139.813 7.18182H147.185L150.211 19.5398H150.467L157.583 7.18182H164.955L161.333 29H155.538L157.626 16.3864H157.455L150.552 28.8295H147.058L144.288 16.3011H144.117L141.987 29H136.191L139.813 7.18182ZM164.14 29L167.762 7.18182H183.487L182.677 11.9545H172.876L172.279 15.7045H181.271L180.461 20.4773H171.47L170.873 24.2273H180.632L179.822 29H164.14ZM16.3748 43.1818L18.2924 58.5653H18.4629L25.4941 43.1818H32.1845L21.3606 65H13.264L9.68448 43.1818H16.3748ZM30.6637 65L34.2859 43.1818H50.0103L49.2006 47.9545H39.3995L38.8029 51.7045H47.7944L46.9847 56.4773H37.9933L37.3967 60.2273H47.1552L46.3455 65H30.6637ZM49.3258 65L52.948 43.1818H62.3656C63.9849 43.1818 65.3521 43.4766 66.4672 44.0661C67.5822 44.6555 68.3848 45.5043 68.8748 46.6122C69.3649 47.7202 69.4821 49.0483 69.2264 50.5966C68.9707 52.1591 68.4061 53.4766 67.5325 54.549C66.666 55.6143 65.5616 56.424 64.2193 56.978C62.8841 57.5249 61.3855 57.7983 59.7235 57.7983H54.0985L54.8656 53.196H59.2974C59.9934 53.196 60.6042 53.1108 61.1298 52.9403C61.6554 52.7628 62.0815 52.4858 62.4082 52.1094C62.7349 51.7259 62.948 51.2216 63.0474 50.5966C63.1468 49.9716 63.0971 49.4638 62.8983 49.0732C62.6994 48.6754 62.3691 48.3842 61.9075 48.1996C61.4458 48.0078 60.8741 47.9119 60.1923 47.9119H58.1042L55.2491 65H49.3258ZM63.7718 54.9858L67.5645 65H61.1298L57.465 54.9858H63.7718ZM75.6344 65L79.2566 43.1818H85.1799L83.7736 51.7045H91.6145L93.0208 43.1818H98.9441L95.3219 65H89.3986L90.8049 56.4773H82.964L81.5577 65H75.6344ZM121.018 54.4744C120.62 56.8466 119.832 58.8352 118.653 60.4403C117.474 62.0455 116.043 63.2564 114.36 64.0732C112.676 64.8899 110.876 65.2983 108.958 65.2983C106.913 65.2983 105.137 64.8544 103.632 63.9666C102.126 63.0788 101.029 61.7791 100.34 60.0675C99.6507 58.3558 99.5123 56.2642 99.9242 53.7926C100.308 51.4205 101.089 49.4247 102.268 47.8054C103.447 46.1861 104.885 44.9609 106.583 44.13C108.28 43.299 110.095 42.8835 112.026 42.8835C114.058 42.8835 115.823 43.331 117.321 44.2259C118.827 45.1207 119.921 46.4311 120.602 48.157C121.291 49.8828 121.43 51.9886 121.018 54.4744ZM115.052 53.7926C115.251 52.5426 115.265 51.4915 115.095 50.6392C114.924 49.7798 114.566 49.1335 114.019 48.7003C113.472 48.2599 112.737 48.0398 111.813 48.0398C110.762 48.0398 109.832 48.2955 109.022 48.8068C108.213 49.3182 107.541 50.0533 107.009 51.0121C106.476 51.9709 106.103 53.125 105.89 54.4744C105.663 55.7386 105.642 56.7898 105.826 57.6278C106.018 58.4659 106.394 59.0945 106.955 59.5135C107.524 59.9325 108.262 60.142 109.171 60.142C110.208 60.142 111.124 59.8935 111.92 59.3963C112.722 58.8991 113.387 58.1783 113.912 57.2337C114.445 56.2891 114.825 55.142 115.052 53.7926ZM134.625 43.1818H140.463L137.991 58.1392C137.75 59.5597 137.189 60.8097 136.308 61.8892C135.428 62.9616 134.316 63.7997 132.974 64.4034C131.631 65 130.151 65.2983 128.531 65.2983C127.139 65.2983 125.903 65.0568 124.824 64.5739C123.751 64.0838 122.956 63.3168 122.438 62.2727C121.926 61.2216 121.813 59.858 122.097 58.1818H128.02C127.949 58.7358 127.963 59.201 128.062 59.5774C128.162 59.9467 128.347 60.2273 128.616 60.419C128.886 60.6037 129.241 60.696 129.682 60.696C130.122 60.696 130.509 60.6001 130.843 60.4084C131.177 60.2095 131.454 59.9219 131.674 59.5455C131.894 59.1619 132.054 58.6932 132.153 58.1392L134.625 43.1818ZM139.648 65L143.27 43.1818H158.995L158.185 47.9545H148.384L147.787 51.7045H156.779L155.969 56.4773H146.978L146.381 60.2273H156.14L155.33 65H139.648ZM163.85 58.1818L163.935 57.6705C164.134 56.5057 164.383 55.5753 164.681 54.8793C164.986 54.1832 165.356 53.6257 165.789 53.2067C166.222 52.7805 166.726 52.3935 167.302 52.0455C167.799 51.7472 168.25 51.4595 168.655 51.1825C169.067 50.9055 169.404 50.6108 169.667 50.2983C169.93 49.9858 170.093 49.6307 170.157 49.233C170.214 48.8778 170.178 48.5653 170.05 48.2955C169.922 48.0256 169.727 47.8161 169.464 47.6669C169.202 47.5178 168.893 47.4432 168.537 47.4432C168.154 47.4432 167.785 47.532 167.43 47.7095C167.074 47.8871 166.773 48.1321 166.524 48.4446C166.275 48.7571 166.123 49.1193 166.066 49.5312H160.611C160.881 47.9688 161.442 46.701 162.295 45.728C163.147 44.7479 164.187 44.0305 165.416 43.576C166.645 43.1143 167.955 42.8835 169.347 42.8835C170.853 42.8835 172.163 43.1072 173.278 43.5547C174.4 43.995 175.231 44.6626 175.771 45.5575C176.311 46.4453 176.471 47.5568 176.251 48.892C176.108 49.7585 175.839 50.5185 175.441 51.1719C175.05 51.8182 174.553 52.3899 173.949 52.8871C173.346 53.3771 172.664 53.821 171.904 54.2188C171.336 54.517 170.849 54.8224 170.444 55.1349C170.047 55.4474 169.724 55.8061 169.475 56.2109C169.233 56.6158 169.063 57.1023 168.964 57.6705L168.878 58.1818H163.85ZM165.384 65.3409C164.553 65.3409 163.875 65.0533 163.349 64.478C162.831 63.8956 162.614 63.1889 162.699 62.358C162.785 61.5483 163.15 60.8558 163.797 60.2805C164.45 59.7053 165.192 59.4176 166.023 59.4176C166.812 59.4176 167.469 59.7053 167.994 60.2805C168.527 60.8558 168.751 61.5483 168.665 62.358C168.608 62.9119 168.413 63.4162 168.079 63.8707C167.753 64.3182 167.348 64.6768 166.865 64.9467C166.389 65.2095 165.895 65.3409 165.384 65.3409Z" fill="#F9BC60"/>
</svg>
